<svg width="224" height="57" viewBox="0 0 224 57" fill="none" xmlns="http://www.w3.org/2000/svg">
<path d="M47.4962 36.3988V55.1017H41.9454V36.3988H39.9805V31.2579H41.9454V22.0533C41.9454 19.0504 42.4693 16.9288 43.5173 15.6884C44.9582 13.9585 47.0541 13.0935 49.8049 13.0935C50.7873 13.0935 52.0236 13.3791 53.5136 13.9503V19.5808L52.9487 19.287C51.7534 18.6832 50.771 18.3813 50.0014 18.3813C49.0189 18.3813 48.3558 18.7321 48.0119 19.4339C47.6681 20.1194 47.4962 21.4413 47.4962 23.3997V31.2579H53.5136V36.3988H47.4962Z" fill="black"/>
<path d="M65.4199 36.3988V55.1017H59.8937V36.3988H57.5358V31.2579H59.8937V22.5184H65.4199V31.2579H69.7181V36.3988H65.4199Z" fill="black"/>
<path d="M96.9013 44.4773H79.7577C79.9051 46.4357 80.5437 47.9943 81.6735 49.153C82.8033 50.2954 84.2524 50.8666 86.0208 50.8666C87.3962 50.8666 88.5342 50.5402 89.4348 49.8874C90.319 49.2346 91.326 48.0269 92.4558 46.2643L97.1224 48.8592C96.4019 50.0833 95.6405 51.1359 94.8382 52.0172C94.0359 52.8822 93.1762 53.6003 92.2593 54.1715C91.3423 54.7264 90.3517 55.1344 89.2874 55.3955C88.2231 55.6566 87.0687 55.7872 85.8243 55.7872C82.2548 55.7872 79.3893 54.6448 77.2279 52.3599C75.0665 50.0588 73.9859 47.0069 73.9859 43.2043C73.9859 39.4343 75.0338 36.3824 77.1297 34.0487C79.2419 31.7475 82.0419 30.5969 85.5296 30.5969C89.05 30.5969 91.8336 31.7149 93.8803 33.9507C95.9107 36.1703 96.9259 39.2466 96.9259 43.1798L96.9013 44.4773ZM91.2277 39.9729C90.4581 37.0352 88.5997 35.5664 85.6524 35.5664C84.981 35.5664 84.3506 35.6725 83.7612 35.8847C83.1717 36.0805 82.6314 36.3743 82.1401 36.766C81.6653 37.1413 81.2559 37.5983 80.9121 38.1369C80.5682 38.6754 80.3062 39.2874 80.1261 39.9729H91.2277Z" fill="black"/>
<path d="M104.166 31.2579H109.692V33.3877C110.707 32.3269 111.608 31.6006 112.394 31.2089C113.196 30.8009 114.146 30.5969 115.243 30.5969C116.7 30.5969 118.223 31.0702 119.811 32.0168L117.281 37.0597C116.233 36.309 115.21 35.9336 114.211 35.9336C111.198 35.9336 109.692 38.2021 109.692 42.7392V55.1017H104.166V31.2579Z" fill="black"/>
<path d="M129.482 31.2579L135.745 44.8689L142.5 29.0791L149.303 44.8689L155.492 31.2579H161.682L149.156 56.8888L142.5 41.5396L135.77 56.8888L123.268 31.2579H129.482Z" fill="black"/>
<path d="M172.163 31.2579V55.1017H166.637V31.2579H172.163ZM165.802 21.3434C165.802 20.3805 166.154 19.5481 166.858 18.8464C167.562 18.1446 168.406 17.7937 169.388 17.7937C170.387 17.7937 171.238 18.1446 171.942 18.8464C172.647 19.5318 172.999 20.3723 172.999 21.3679C172.999 22.3634 172.647 23.212 171.942 23.9138C171.255 24.6156 170.411 24.9665 169.413 24.9665C168.414 24.9665 167.562 24.6156 166.858 23.9138C166.154 23.212 165.802 22.3552 165.802 21.3434Z" fill="black"/>
<path d="M194.263 35.3216L189.694 37.7452C188.974 36.2764 188.081 35.542 187.017 35.542C186.509 35.542 186.076 35.7133 185.715 36.056C185.355 36.3824 185.175 36.8068 185.175 37.329C185.175 38.2429 186.239 39.1487 188.368 40.0463C191.299 41.303 193.272 42.4617 194.287 43.5225C195.302 44.5833 195.81 46.0114 195.81 47.8066C195.81 50.1077 194.958 52.0335 193.256 53.5839C191.602 55.0528 189.604 55.7872 187.263 55.7872C183.251 55.7872 180.41 53.8369 178.74 49.9364L183.456 47.7576C184.111 48.9 184.61 49.6263 184.954 49.9364C185.625 50.5565 186.428 50.8666 187.361 50.8666C189.228 50.8666 190.161 50.018 190.161 48.3207C190.161 47.3415 189.44 46.4275 188 45.5789C187.443 45.3014 186.886 45.0322 186.329 44.771C185.773 44.5099 185.208 44.2406 184.635 43.9632C183.03 43.1798 181.9 42.3964 181.245 41.6131C180.41 40.6175 179.993 39.3364 179.993 37.7697C179.993 35.697 180.705 33.9834 182.129 32.6288C183.587 31.2742 185.355 30.5969 187.435 30.5969C190.497 30.5969 192.773 32.1718 194.263 35.3216Z" fill="black"/>
<path d="M223.779 44.4773H206.636C206.783 46.4357 207.421 47.9943 208.551 49.153C209.681 50.2954 211.13 50.8666 212.899 50.8666C214.274 50.8666 215.412 50.5402 216.313 49.8874C217.197 49.2346 218.204 48.0269 219.334 46.2643L224 48.8592C223.28 50.0833 222.518 51.1359 221.716 52.0172C220.914 52.8822 220.054 53.6003 219.137 54.1715C218.22 54.7264 217.23 55.1344 216.165 55.3955C215.101 55.6566 213.947 55.7872 212.702 55.7872C209.133 55.7872 206.267 54.6448 204.106 52.3599C201.944 50.0588 200.864 47.0069 200.864 43.2043C200.864 39.4343 201.912 36.3824 204.007 34.0487C206.12 31.7475 208.92 30.5969 212.407 30.5969C215.928 30.5969 218.711 31.7149 220.758 33.9507C222.789 36.1703 223.804 39.2466 223.804 43.1798L223.779 44.4773ZM218.106 39.9729C217.336 37.0352 215.478 35.5664 212.53 35.5664C211.859 35.5664 211.228 35.6725 210.639 35.8847C210.05 36.0805 209.509 36.3743 209.018 36.766C208.543 37.1413 208.134 37.5983 207.79 38.1369C207.446 38.6754 207.184 39.2874 207.004 39.9729H218.106Z" fill="black"/>
<path d="M26.6242 45.8971H10.3893L6.16483 55.0772H0L18.7647 14.905L36.8662 55.0772H30.6031L26.6242 45.8971ZM24.2909 40.5359L18.6664 27.6838L12.7718 40.5359H24.2909Z" fill="black"/>
<path fill-rule="evenodd" clip-rule="evenodd" d="M18.4323 11.7982C24.0995 11.7982 28.6937 9.35598 28.6937 6.34341C28.6937 3.33084 24.0995 0.888672 18.4323 0.888672C12.7651 0.888672 8.1709 3.33084 8.1709 6.34341C8.1709 9.35598 12.7651 11.7982 18.4323 11.7982ZM18.4325 8.67189C22.8926 8.67189 26.5082 7.1695 26.5082 5.3162C26.5082 3.46291 22.8926 1.96051 18.4325 1.96051C13.9724 1.96051 10.3568 3.46291 10.3568 5.3162C10.3568 7.1695 13.9724 8.67189 18.4325 8.67189Z" fill="black"/>
</svg>
